# xmcd CD database file
#
# Track frame offsets:
#	150
#	18088
#	39071
#	61925
#	85979
#	120788
#	166423
#	187011
#	209544
#	231645
#	263264
#
# Disc length: 4083 seconds
#
# Revision: 0
# Processed by: cddbd v1.5.2PL0 Copyright (c) Steve Scherf et al.
# Submitted via: CDex 1.70beta2
#
DISCID=830ff10b
DTITLE=Danny Sinoff Quartet with Jimmy Norman - Live at Ellington's, Vol 2
DYEAR=2006
DGENRE=Jazz
TTITLE0=Where or When
TTITLE1=Love is Here to Stay
TTITLE2=Georgia on My Mind
TTITLE3=I Get a Kick Out of You
TTITLE4=Night and Day
TTITLE5=Topsy
TTITLE6=Coquette
TTITLE7=The Shadow of Your Smile
TTITLE8=Come Fly with Me
TTITLE9=Imagination
TTITLE10=Going to Chicago Blues
EXTD=YEAR: 2006
EXTT0=
EXTT1=
EXTT2=
EXTT3=
EXTT4=
EXTT5=
EXTT6=
EXTT7=
EXTT8=
EXTT9=
EXTT10=
PLAYORDER=
